<svg width="42" height="42" viewBox="0 0 42 42" fill="none" xmlns="http://www.w3.org/2000/svg">
<path fill-rule="evenodd" clip-rule="evenodd" d="M21 41.9995C32.598 41.9995 42 32.5975 42 20.9995C42 9.40153 32.598 -0.000488281 21 -0.000488281C9.40202 -0.000488281 0 9.40153 0 20.9995C0 32.5975 9.40202 41.9995 21 41.9995ZM21 7C28.732 7 35 13.3063 35 21.0856C35 28.116 29.8804 33.9433 23.1875 35V25.1572H26.4496L27.0703 21.0856H23.1875V18.4445C23.1875 17.3295 23.73 16.2436 25.4691 16.2436H27.2344V12.7773C27.2344 12.7773 25.6317 12.5022 24.1005 12.5022C20.9026 12.5022 18.8125 14.4521 18.8125 17.9823V21.0856H15.2578V25.1572H18.8125V35C12.1196 33.9433 6.99998 28.116 6.99998 21.0856C6.99998 13.3063 13.268 7 21 7Z" fill="#FFA703"/>
</svg>
