<svg width="42" height="42" viewBox="0 0 42 42" fill="none" xmlns="http://www.w3.org/2000/svg">
<path fill-rule="evenodd" clip-rule="evenodd" d="M21 42C32.598 42 42 32.598 42 21C42 9.40202 32.598 0 21 0C9.40202 0 0 9.40202 0 21C0 32.598 9.40202 42 21 42ZM6 20.6104C6 12.5382 12.7125 6 21 6C29.2875 6 36 12.5382 36 20.6104C35.9992 23.6717 35.0128 26.6556 33.1797 29.1422C31.3466 31.6289 28.759 33.4929 25.7812 34.4721C25.0312 34.6182 24.75 34.1616 24.75 33.7781C24.75 33.6132 24.7521 33.3279 24.7549 32.948C24.7604 32.1918 24.7688 31.061 24.7688 29.7602C24.7688 28.3905 24.3 27.5139 23.7563 27.0573C27.0938 26.692 30.6 25.4501 30.6 19.8434C30.6 18.2362 30.0187 16.9396 29.0625 15.9168C29.2125 15.5516 29.7375 14.054 28.9125 12.0451C28.9125 12.0451 27.6562 11.6433 24.7875 13.5426C23.5875 13.2139 22.3125 13.0495 21.0375 13.0495C19.7625 13.0495 18.4875 13.2139 17.2875 13.5426C14.4188 11.6615 13.1625 12.0451 13.1625 12.0451C12.3375 14.054 12.8625 15.5516 13.0125 15.9168C12.0563 16.9396 11.475 18.2545 11.475 19.8434C11.475 25.4319 14.9625 26.692 18.3 27.0573C17.8687 27.4226 17.475 28.0618 17.3438 29.0114C16.4813 29.395 14.325 30.0159 12.975 27.8061C12.6938 27.3678 11.85 26.2902 10.6687 26.3085C9.4125 26.3268 10.1625 27.0025 10.6875 27.2764C11.325 27.6234 12.0563 28.9201 12.225 29.3402C12.525 30.162 13.5 31.7326 17.2688 31.0569C17.2688 31.8553 17.2767 32.6227 17.2823 33.1559C17.2852 33.4399 17.2875 33.6575 17.2875 33.7781C17.2875 34.1616 17.0062 34.5999 16.2562 34.4721C10.2937 32.5362 6 27.0756 6 20.6104Z" fill="#FFA703"/>
</svg>
