<svg width="204" height="56" viewBox="0 0 204 56" fill="none" xmlns="http://www.w3.org/2000/svg">
<g clip-path="url(#clip0_305_19620)">
<path d="M45.4177 18.76V33.8153C46.4893 35.2262 47.4431 36.6848 48.2859 38.1298V16.5117L45.4177 18.76Z" fill="url(#paint0_linear_305_19620)"/>
<path d="M35.2612 27.0841C34.3572 26.4583 33.5144 25.9235 32.769 25.4775L44.6338 16.5117L44.6655 16.4889L45.4177 15.92L46.5051 15.0985L48.1001 13.8948L42.0556 10.3903L40.5444 9.51424L39.9078 9.1456L38.3944 8.26722L33.7342 5.56609L30.8365 3.88671L24.1418 0L13.8562 5.96432L12.1842 6.93372L5.69562 10.6975L4.02363 11.667L0 13.9994V42.0006L4.02816 44.3353L5.70015 45.3047L12.1819 49.064C12.1819 47.9558 12.1819 46.8476 12.1819 45.7394C12.1819 45.0931 12.1819 44.4468 12.1819 43.8006C12.1819 41.9346 12.1819 40.0709 12.1864 38.2072C12.1864 37.4312 12.1864 36.6529 12.1864 35.877C12.1864 35.3581 12.1864 34.8416 12.1864 34.3227H12.1796V32.8254V29.5167C12.737 29.0957 13.2943 28.6747 13.8516 28.256C21.0901 22.8037 28.324 17.3468 35.5579 11.89L29.1849 8.1944L12.1842 20.8672V12.1994L5.69562 15.961C5.69562 23.987 5.69788 32.013 5.70015 40.039C5.70015 40.6853 5.70015 41.3315 5.70015 41.9801L4.02816 41.0107L2.8682 40.3371V15.6629L4.02363 14.9939L5.69562 14.0245L12.1842 10.2629L13.8562 9.29351L24.1418 3.32464L28.5846 5.90061L30.0957 6.77671L36.215 10.3244L37.7306 11.2027L38.365 11.5714L39.5589 12.2632C32.9979 17.2126 22.4902 25.0861 14.2549 31.2621V39.461L25.3267 31.0937L26.1423 30.477L26.7336 30.031C29.7083 31.3303 32.2978 33.169 34.4297 35.0532H34.4274C34.4274 35.0532 34.4478 35.0714 34.4592 35.0805C38.732 38.8648 41.1584 42.8039 41.1584 42.8039L39.7152 43.6413L24.1395 52.6731L15.2178 47.5007L13.8516 46.7088L13.8199 46.6906L13.8063 48.8455L13.8516 48.8023C13.8516 49.2142 13.8516 49.6261 13.8516 50.0357L24.1373 56L41.0565 46.1899L42.5064 45.348L48.2791 42.0006V41.6661C47.9075 40.8969 47.5088 40.1551 47.0874 39.4383C43.7366 33.7356 38.9699 29.6509 35.2544 27.0841H35.2612Z" fill="url(#paint1_linear_305_19620)"/>
<path d="M64.002 23.9936V33.3896H58.6395V12.1128H64.002V21.4473L71.3379 12.1128H77.6407L69.1131 22.5373L77.9556 33.3873H71.4036L64.0043 23.9914L64.002 23.9936Z" fill="#FAFAFA"/>
<path d="M87.1425 16.2344C89.7456 16.2344 91.5943 17.3858 92.5345 18.8718V16.4779H97.8971V33.3878H92.5345V30.9939C91.5626 32.4798 89.7116 33.6313 87.1107 33.6313C82.847 33.6313 79.4282 30.2361 79.4282 24.9021C79.4282 19.5681 82.847 16.2344 87.1425 16.2344V16.2344ZM88.7102 20.7491C86.7029 20.7491 84.886 22.2032 84.886 24.9021C84.886 27.5987 86.7052 29.1142 88.7102 29.1142C90.7492 29.1142 92.5345 27.6283 92.5345 24.9317C92.5345 22.2351 90.747 20.7491 88.7102 20.7491V20.7491Z" fill="#FAFAFA"/>
<path d="M121.194 11.8695C126.43 11.8695 130.381 14.7185 131.636 19.3243H125.741C124.832 17.5061 123.169 16.5959 121.133 16.5959C117.841 16.5959 115.582 18.9602 115.582 22.7172C115.582 26.4742 117.839 28.8385 121.133 28.8385C123.172 28.8385 124.832 27.9306 125.741 26.1101H131.636C130.381 30.7159 126.432 33.5354 121.194 33.5354C114.703 33.5354 110.127 29.0798 110.127 22.7172C110.127 16.3547 114.703 11.8672 121.194 11.8672V11.8695Z" fill="#FAFAFA"/>
<path d="M134.925 10.9614H140.288V18.7508C141.355 17.2967 143.267 16.2954 145.68 16.2954C149.663 16.2954 152.327 18.9624 152.327 23.509V33.3896H146.996V24.2076C146.996 21.9047 145.68 20.6304 143.641 20.6304C141.602 20.6304 140.286 21.9025 140.286 24.2076V33.3896H134.923V10.9614H134.925Z" fill="#FAFAFA"/>
<path d="M162.706 16.2344C165.309 16.2344 167.158 17.3858 168.098 18.8718V16.4779H173.46V33.3878H168.098V30.9939C167.126 32.4798 165.275 33.6313 162.674 33.6313C158.41 33.6313 154.991 30.2361 154.991 24.9021C154.991 19.5681 158.408 16.2344 162.706 16.2344V16.2344ZM164.273 20.7491C162.266 20.7491 160.449 22.2032 160.449 24.9021C160.449 27.5987 162.268 29.1142 164.273 29.1142C166.278 29.1142 168.098 27.6283 168.098 24.9317C168.098 22.2351 166.31 20.7491 164.273 20.7491V20.7491Z" fill="#FAFAFA"/>
<path d="M107.147 16.4775H101.785V33.3875H107.147V16.4775Z" fill="#FAFAFA"/>
<path d="M182.711 16.4775H177.348V33.3875H182.711V16.4775Z" fill="#FAFAFA"/>
<path d="M198.669 24.2055C198.669 21.9026 197.353 20.6283 195.314 20.6283C193.275 20.6283 191.959 21.9004 191.959 24.2055V33.3875H186.596V16.4776H191.959V18.7214C193.026 17.2968 194.906 16.2979 197.258 16.2979C201.302 16.2979 203.998 18.9648 203.998 23.5115V33.3921H198.667V24.2101L198.669 24.2055Z" fill="#FAFAFA"/>
<path d="M107.147 10.4678H101.785V14.8073H107.147V10.4678Z" fill="#FAFAFA"/>
<path d="M182.711 10.4678H177.348V14.8073H182.711V10.4678Z" fill="#FAFAFA"/>
</g>
<defs>
<linearGradient id="paint0_linear_305_19620" x1="46.8518" y1="16.5117" x2="46.8518" y2="38.1298" gradientUnits="userSpaceOnUse">
<stop stop-color="#AC5A26"/>
<stop offset="0.07" stop-color="#B76E2F"/>
<stop offset="0.08" stop-color="#BB7533"/>
<stop offset="0.15" stop-color="#BF7D39"/>
<stop offset="0.25" stop-color="#CD934B"/>
<stop offset="0.38" stop-color="#E3B768"/>
<stop offset="0.46" stop-color="#F5D580"/>
<stop offset="0.82" stop-color="#BB7533"/>
<stop offset="0.93" stop-color="#A65D29"/>
<stop offset="1" stop-color="#984D23"/>
</linearGradient>
<linearGradient id="paint1_linear_305_19620" x1="24.1441" y1="0" x2="24.1441" y2="56.0023" gradientUnits="userSpaceOnUse">
<stop stop-color="#AC5A26"/>
<stop offset="0.07" stop-color="#B76E2F"/>
<stop offset="0.08" stop-color="#BB7533"/>
<stop offset="0.15" stop-color="#BF7D39"/>
<stop offset="0.25" stop-color="#CD934B"/>
<stop offset="0.38" stop-color="#E3B768"/>
<stop offset="0.46" stop-color="#F5D580"/>
<stop offset="0.82" stop-color="#BB7533"/>
<stop offset="0.93" stop-color="#A65D29"/>
<stop offset="1" stop-color="#984D23"/>
</linearGradient>
<clipPath id="clip0_305_19620">
<rect width="204" height="56" fill="white"/>
</clipPath>
</defs>
</svg>
