<svg width="48" height="48" viewBox="0 0 48 48" fill="none" xmlns="http://www.w3.org/2000/svg">
<path fill-rule="evenodd" clip-rule="evenodd" d="M45 24C45 35.598 35.598 45 24 45C12.402 45 3 35.598 3 24C3 12.402 12.402 3 24 3C35.598 3 45 12.402 45 24ZM24.4705 17.8997C22.5897 18.6863 18.8308 20.3145 13.1936 22.7841C12.2783 23.1502 11.7987 23.5083 11.7551 23.8584C11.6813 24.4501 12.4183 24.6832 13.4218 25.0005C13.5583 25.0436 13.6997 25.0884 13.8447 25.1357C14.832 25.4585 16.1601 25.836 16.8506 25.851C17.4769 25.8646 18.1759 25.605 18.9476 25.0721C24.2145 21.497 26.9334 19.69 27.1041 19.651C27.2245 19.6236 27.3914 19.589 27.5044 19.6901C27.6175 19.7911 27.6064 19.9825 27.5944 20.0338C27.5214 20.3468 24.6286 23.0511 23.1316 24.4506C22.6649 24.8869 22.3339 25.1964 22.2662 25.267C22.1146 25.4254 21.9601 25.5751 21.8116 25.7191C20.8944 26.6082 20.2066 27.275 21.8497 28.3638C22.6393 28.8871 23.2712 29.3198 23.9016 29.7514C24.59 30.2229 25.2767 30.6931 26.1651 31.2787C26.3914 31.4279 26.6076 31.5828 26.8182 31.7338C27.6193 32.3081 28.3391 32.8241 29.2284 32.7418C29.7451 32.694 30.2788 32.2054 30.5499 30.7483C31.1905 27.3047 32.4496 19.8434 32.7407 16.7687C32.7662 16.4994 32.7341 16.1546 32.7083 16.0033C32.6826 15.8519 32.6287 15.6363 32.4331 15.4767C32.2014 15.2877 31.8438 15.2478 31.6838 15.2506C30.9565 15.2635 29.8406 15.6537 24.4705 17.8997Z" fill="#FFA703"/>
</svg>
