<svg width="42" height="42" viewBox="0 0 42 42" fill="none" xmlns="http://www.w3.org/2000/svg">
<path fill-rule="evenodd" clip-rule="evenodd" d="M21 42C32.598 42 42 32.598 42 21C42 9.40202 32.598 0 21 0C9.40202 0 0 9.40202 0 21C0 32.598 9.40202 42 21 42ZM30.7569 16.413C30.7569 23.42 25.7001 31.5 16.4548 31.5V31.4959C13.7234 31.4996 11.0488 30.6742 8.75002 29.1182C10.0661 29.2856 11.4005 29.1777 12.677 28.8005C13.9535 28.4234 15.147 27.7845 16.1892 26.9204C15.1403 26.8994 14.1237 26.5332 13.2817 25.873C12.4397 25.2128 11.8144 24.2915 11.493 23.238C12.2462 23.3911 13.0227 23.36 13.7627 23.1471C12.6252 22.9046 11.6021 22.2546 10.8671 21.3072C10.1321 20.3599 9.73033 19.1734 9.73001 17.9492V17.882C10.4289 18.2933 11.2115 18.521 12.0115 18.5457C10.9472 17.796 10.1938 16.6467 9.90468 15.3316C9.61555 14.0166 9.81243 12.6347 10.4552 11.4674C11.7173 13.1053 13.2919 14.445 15.0766 15.3994C16.8613 16.3538 18.8163 16.9017 20.8148 17.0074C20.5647 15.8707 20.6767 14.6787 21.1335 13.6159C21.5903 12.553 22.3664 11.6786 23.3418 11.128C24.3171 10.5774 25.4373 10.3812 26.529 10.5698C27.6208 10.7584 28.6231 11.3213 29.381 12.1714C30.5067 11.9373 31.5861 11.5021 32.5728 10.8844C32.1977 12.1123 31.4123 13.1546 30.3629 13.8172C31.3595 13.6932 32.3327 13.412 33.25 12.9829C32.5751 14.0476 31.7259 14.977 30.7422 15.7276C30.7569 15.9551 30.7569 16.1835 30.7569 16.413Z" fill="#FFA703"/>
</svg>
